<svg width="20" height="14" viewBox="0 0 20 14" fill="none" xmlns="http://www.w3.org/2000/svg">
    <path fill-rule="evenodd" clip-rule="evenodd" d="M18.3694 8.96815C19.4323 7.84975 19.4323 6.15057 18.3694 5.03217C16.5766 3.14588 13.4975 0.583496 9.99992 0.583496C6.50236 0.583496 3.42329 3.14588 1.63048 5.03217C0.567508 6.15057 0.567509 7.84975 1.63048 8.96815C3.42329 10.8544 6.50236 13.4168 9.99992 13.4168C13.4975 13.4168 16.5766 10.8544 18.3694 8.96815ZM9.99992 9.75016C11.5187 9.75016 12.7499 8.51895 12.7499 7.00016C12.7499 5.48138 11.5187 4.25016 9.99992 4.25016C8.48113 4.25016 7.24992 5.48138 7.24992 7.00016C7.24992 8.51895 8.48113 9.75016 9.99992 9.75016Z" fill="#B5ADA0"/>
</svg>