<svg width="20" height="18" viewBox="0 0 20 18" fill="none" xmlns="http://www.w3.org/2000/svg">
    <path fill-rule="evenodd" clip-rule="evenodd" d="M2.18069 2.15264C1.91221 1.88415 1.91221 1.44885 2.18069 1.18037C2.44918 0.911883 2.88448 0.911883 3.15297 1.18037L17.8196 15.847C18.0881 16.1155 18.0881 16.5508 17.8196 16.8193C17.5511 17.0878 17.1158 17.0878 16.8474 16.8193L14.2562 14.2281C12.9644 14.9315 11.5219 15.4165 10.0002 15.4165C6.50261 15.4165 3.42353 12.8541 1.63073 10.9678C0.567752 9.84943 0.567753 8.15024 1.63073 7.03184C2.3914 6.23151 3.38362 5.30947 4.54112 4.51307L2.18069 2.15264ZM7.63091 7.60286C7.38899 8.01228 7.25016 8.48984 7.25016 8.99984C7.25016 10.5186 8.48138 11.7498 10.0002 11.7498C10.5102 11.7498 10.9877 11.611 11.3971 11.3691L7.63091 7.60286ZM10.0002 2.58317C13.4977 2.58317 16.5768 5.14556 18.3696 7.03185C19.4326 8.15025 19.4326 9.84943 18.3696 10.9678C17.9662 11.3923 17.4977 11.8509 16.9739 12.3069L7.62847 2.96142C8.38882 2.72302 9.18307 2.58317 10.0002 2.58317Z" fill="#6F625D"/>
</svg>